# xmcd
# 
# Track frame offsets:
#     183
#     13600
#     30303
#     42170
#     59585
#     69588
#     83163
#     100425
#     111245
#     131383
#     145663
#     158188
#     171080
#     185178
#     196138
#     210720
#     222228
#     235598
#     252193
#     264990
# 
# Disc length: 3773
# 
# Revision: 1
# Processed by: cddbd v1.5.2PL0 Copyright (c) Steve Scherf et al.
# Submitted via: fre:ac v1.0.31
# 
DISCID=180ebb14
DTITLE=Charlie Rich - The Best Of
DYEAR=1996
DGENRE=Country
TTITLE0=The Most Beautiful Girl
TTITLE1=Big Boss Man
TTITLE2=Rollin' With The Flow
TTITLE3=Life Has It's Little Ups And Downs
TTITLE4=Mohair Sam
TTITLE5=Sittin' And Thinkin'
TTITLE6=My Elusive Dreams
TTITLE7=Lonley Weekends
TTITLE8=You Don't Know Me
TTITLE9=Mountain Dew
TTITLE10=Behind Closed Doors
TTITLE11=Take It On Home
TTITLE12=Break Up
TTITLE13=There Won't Be Anymore
TTITLE14=On My Knees
TTITLE15=Pass On By
TTITLE16=Good Time Charlie's Got The Blues
TTITLE17=Who Will The Next Fool Be
TTITLE18=C.C. Rider
TTITLE19=I Feel Like Going Home
EXTD=
EXTT0=
EXTT1=
EXTT2=
EXTT3=
EXTT4=
EXTT5=
EXTT6=
EXTT7=
EXTT8=
EXTT9=
EXTT10=
EXTT11=
EXTT12=
EXTT13=
EXTT14=
EXTT15=
EXTT16=
EXTT17=
EXTT18=
EXTT19=
PLAYORDER=
